<?xml version="1.0" encoding="utf-8"?>
<!-- Generator: Adobe Illustrator 27.5.0, SVG Export Plug-In . SVG Version: 6.00 Build 0)  -->
<svg version="1.1" id="Capa_1" xmlns="http://www.w3.org/2000/svg" xmlns:xlink="http://www.w3.org/1999/xlink" x="0px" y="0px"
	 viewBox="0 0 2122 2122" style="enable-background:new 0 0 2122 2122;" xml:space="preserve">
<path style="fill:#455EA8;" d="M1172.755,502.938c-361.488,0-654.531,293.043-654.531,654.53
	c0,171.356,65.877,327.302,173.65,443.976c103.137,70.47,227.457,112.179,361.449,113.655c2.447,0.026,4.884,0.092,7.337,0.092
	c361.488,0,654.531-293.043,654.531-654.53c0-0.608-0.022-1.21-0.023-1.818c-0.481-176.518-70.848-336.579-184.877-454.033
	c3.798,3.912,7.548,7.869,11.247,11.873C1436.519,544.926,1309.546,502.938,1172.755,502.938z"/>
<path style="fill:#92BAE4;" d="M691.873,1601.444C691.873,1601.444,691.874,1601.444,691.873,1601.444
	c-0.01-0.007-0.022-0.016-0.033-0.022c-5.122-3.501-10.183-7.08-15.199-10.721c-0.538-0.391-1.076-0.783-1.612-1.175
	c-4.782-3.492-9.517-7.044-14.198-10.663c-0.296-0.227-0.593-0.451-0.888-0.68c-15.091-11.702-29.65-24.053-43.649-37.005
	c-0.542-0.501-1.081-1.005-1.622-1.509c-4.185-3.899-8.319-7.849-12.401-11.854c-0.424-0.417-0.853-0.828-1.276-1.246
	c-13.465-13.287-26.354-27.153-38.634-41.559c-0.601-0.704-1.195-1.413-1.793-2.12c-3.499-4.141-6.949-8.326-10.347-12.554
	c-0.564-0.7-1.132-1.397-1.692-2.1c-7.894-9.906-15.519-20.035-22.838-30.398c-0.06-0.084-0.117-0.17-0.177-0.254
	c-3.444-4.881-6.81-9.82-10.123-14.798c-0.65-0.974-1.289-1.956-1.932-2.934c-2.799-4.254-5.547-8.542-8.248-12.864
	c-0.658-1.054-1.32-2.104-1.973-3.162c-3.006-4.873-5.957-9.783-8.839-14.741c-0.2-0.343-0.407-0.682-0.607-1.025
	c-3.212-5.551-6.347-11.15-9.399-16.802c-0.144-0.265-0.28-0.535-0.423-0.801c-2.734-5.079-5.394-10.202-7.996-15.359
	c-0.651-1.29-1.286-2.589-1.929-3.884c-2.123-4.278-4.201-8.582-6.233-12.913c-0.667-1.423-1.337-2.844-1.995-4.274
	c-2.152-4.674-4.247-9.379-6.291-14.111c-0.401-0.927-0.817-1.844-1.213-2.773c-2.469-5.791-4.863-11.619-7.169-17.495
	c-0.175-0.45-0.34-0.906-0.515-1.356c-2.038-5.226-4.004-10.49-5.91-15.781c-0.576-1.597-1.129-3.204-1.693-4.807
	c-1.499-4.268-2.958-8.554-4.371-12.861c-0.581-1.771-1.161-3.541-1.727-5.318c-1.436-4.509-2.817-9.043-4.158-13.594
	c-0.417-1.414-0.853-2.819-1.261-4.238c-1.722-5.998-3.374-12.026-4.929-18.092c-0.139-0.541-0.259-1.09-0.397-1.631
	c-1.375-5.424-2.677-10.875-3.915-16.35c-0.419-1.853-0.81-3.716-1.213-5.576c-0.928-4.277-1.818-8.566-2.663-12.875
	c-0.402-2.049-0.797-4.099-1.179-6.156c-0.821-4.413-1.587-8.844-2.318-13.288c-0.294-1.782-0.607-3.557-0.886-5.344
	c-0.966-6.187-1.862-12.397-2.654-18.64c-0.06-0.47-0.104-0.945-0.162-1.416c-0.715-5.748-1.347-11.52-1.913-17.313
	c-0.196-2.007-0.358-4.024-0.536-6.038c-0.385-4.355-0.733-8.72-1.031-13.099c-0.153-2.223-0.295-4.448-0.424-6.677
	c-0.257-4.427-0.461-8.87-0.63-13.32c-0.076-1.998-0.17-3.991-0.228-5.993c-0.167-5.785-0.263-11.587-0.279-17.409H212.155
	c-0.001-0.608-0.023-1.21-0.023-1.818c0,466.175,375.947,844.477,841.19,848.427v-193.989
	C919.331,1713.623,795.01,1671.914,691.873,1601.444z"/>
<path style="fill:#65ACD9;" d="M1715.168,1058.842c0.001,0.608,0.023,1.21,0.023,1.818c0,361.487-293.043,654.53-654.531,654.53
	c-2.453,0-4.89-0.066-7.337-0.092v193.996c2.448,0.021,4.884,0.093,7.337,0.093c468.629,0,848.529-379.899,848.529-848.528
	c0-0.608-0.022-1.211-0.023-1.818H1715.168z"/>
<path style="fill:#65ACD9;" d="M406.152,1062.478c-0.001-0.608-0.023-1.21-0.023-1.818c0-361.488,293.043-654.531,654.53-654.531
	c2.453,0,4.892,0.066,7.339,0.093V212.225c-2.449-0.021-4.884-0.093-7.339-0.093c-468.629,0-848.527,379.899-848.527,848.528
	c0,0.608,0.022,1.21,0.023,1.818H406.152z"/>
<path style="fill:#334C99;" d="M1060.66,406.129c-361.487,0-654.53,293.043-654.53,654.531c0,6.433,0.118,12.838,0.302,19.226
	c0.058,2.003,0.152,3.996,0.228,5.993c0.169,4.451,0.373,8.893,0.63,13.32c0.129,2.229,0.271,4.454,0.424,6.677
	c0.298,4.379,0.646,8.744,1.031,13.099c0.178,2.014,0.34,4.031,0.536,6.038c0.566,5.793,1.198,11.565,1.913,17.313
	c0.058,0.471,0.102,0.945,0.162,1.416c0.792,6.243,1.688,12.453,2.654,18.64c0.279,1.787,0.592,3.562,0.886,5.344
	c0.73,4.443,1.497,8.875,2.318,13.288c0.382,2.057,0.777,4.108,1.179,6.156c0.844,4.307,1.734,8.598,2.663,12.875
	c0.403,1.859,0.794,3.722,1.213,5.576c1.238,5.475,2.54,10.927,3.915,16.35c0.138,0.542,0.258,1.09,0.397,1.631
	c1.556,6.066,3.206,12.095,4.929,18.092c0.408,1.419,0.844,2.823,1.261,4.238c1.341,4.552,2.723,9.085,4.158,13.594
	c0.566,1.777,1.147,3.547,1.727,5.318c1.413,4.307,2.872,8.594,4.371,12.861c0.564,1.603,1.117,3.21,1.693,4.807
	c1.906,5.291,3.872,10.554,5.91,15.781c0.175,0.451,0.34,0.906,0.515,1.356c2.307,5.875,4.701,11.705,7.169,17.495
	c0.396,0.929,0.813,1.846,1.213,2.773c2.044,4.732,4.139,9.438,6.291,14.111c0.658,1.429,1.328,2.851,1.995,4.274
	c2.032,4.331,4.11,8.635,6.233,12.913c0.643,1.295,1.279,2.594,1.929,3.884c2.603,5.157,5.262,10.28,7.996,15.359
	c0.142,0.266,0.279,0.535,0.423,0.801c3.052,5.65,6.187,11.251,9.399,16.802c0.2,0.343,0.407,0.682,0.607,1.025
	c2.882,4.957,5.832,9.868,8.839,14.741c0.653,1.058,1.316,2.108,1.973,3.162c2.702,4.322,5.449,8.61,8.248,12.864
	c0.643,0.978,1.283,1.96,1.932,2.934c3.313,4.978,6.678,9.917,10.123,14.798c0.06,0.084,0.117,0.17,0.177,0.254
	c7.319,10.361,14.943,20.492,22.838,30.398c0.56,0.703,1.128,1.399,1.692,2.1c3.398,4.228,6.846,8.414,10.347,12.554
	c0.598,0.707,1.192,1.416,1.793,2.12c12.28,14.404,25.167,28.273,38.634,41.559c0.424,0.418,0.853,0.83,1.276,1.246
	c4.082,4.005,8.215,7.955,12.401,11.854c0.541,0.503,1.079,1.008,1.622,1.509c13.999,12.951,28.558,25.303,43.649,37.005
	c0.295,0.229,0.592,0.453,0.888,0.68c4.681,3.618,9.416,7.171,14.198,10.663c0.536,0.393,1.073,0.785,1.612,1.175
	c5.015,3.641,10.077,7.221,15.199,10.721c0.011,0.007,0.023,0.016,0.034,0.023c0,0-0.001,0-0.001-0.001
	c-107.773-116.674-173.65-272.62-173.65-443.976c0-361.487,293.043-654.53,654.531-654.53c136.791,0,263.765,41.989,368.784,113.745
	c-3.699-4.005-7.449-7.961-11.247-11.873c-0.097-0.1-0.195-0.2-0.293-0.301c-3.701-3.808-7.451-7.571-11.244-11.289
	c-0.178-0.174-0.357-0.348-0.534-0.522c-3.732-3.649-7.507-7.254-11.324-10.814c-0.22-0.206-0.441-0.411-0.661-0.616
	c-3.787-3.521-7.617-6.999-11.487-10.431c-0.252-0.224-0.504-0.448-0.757-0.672c-3.864-3.417-7.769-6.787-11.713-10.113
	c-0.254-0.214-0.507-0.429-0.76-0.643c-3.973-3.34-7.988-6.632-12.042-9.878c-0.224-0.18-0.448-0.362-0.672-0.542
	c-4.126-3.297-8.295-6.545-12.503-9.742c-0.146-0.112-0.291-0.226-0.439-0.337c-4.342-3.296-8.726-6.539-13.152-9.727
	c-0.008-0.006-0.017-0.013-0.025-0.018c-35.731-25.733-74.163-47.948-114.787-66.147c-0.631-0.283-1.269-0.551-1.9-0.832
	c-4.333-1.925-8.687-3.812-13.069-5.645c-1.097-0.458-2.202-0.896-3.3-1.348c-3.938-1.622-7.889-3.218-11.865-4.766
	c-1.405-0.547-2.821-1.071-4.231-1.608c-3.691-1.406-7.391-2.792-11.114-4.133c-1.633-0.589-3.276-1.156-4.917-1.732
	c-3.527-1.238-7.063-2.458-10.617-3.637c-1.801-0.598-3.609-1.177-5.417-1.759c-3.419-1.102-6.849-2.183-10.292-3.229
	c-1.939-0.589-3.885-1.163-5.832-1.735c-3.337-0.98-6.683-1.937-10.042-2.865c-2.052-0.567-4.109-1.122-6.168-1.669
	c-3.281-0.871-6.573-1.717-9.873-2.539c-2.151-0.536-4.306-1.063-6.465-1.578c-3.235-0.77-6.48-1.51-9.732-2.232
	c-2.234-0.495-4.467-0.988-6.709-1.46c-3.213-0.678-6.441-1.322-9.673-1.952c-2.291-0.448-4.582-0.896-6.883-1.319
	c-3.204-0.59-6.422-1.14-9.644-1.683c-2.345-0.395-4.687-0.796-7.039-1.166c-3.213-0.505-6.44-0.966-9.669-1.424
	c-2.374-0.337-4.744-0.686-7.126-0.997c-3.247-0.425-6.509-0.799-9.77-1.175c-2.38-0.275-4.754-0.567-7.141-0.817
	c-3.324-0.347-6.664-0.637-10.001-0.935c-2.34-0.208-4.673-0.439-7.02-0.624c-3.48-0.271-6.977-0.48-10.472-0.698
	c-2.223-0.139-4.436-0.307-6.664-0.423c-3.855-0.201-7.727-0.33-11.598-0.464c-1.884-0.064-3.759-0.165-5.647-0.215
	C1072.242,406.21,1066.46,406.129,1060.66,406.129z"/>
<path style="fill:#334C99;" d="M1272.252,1032.054c3.149,8.885,4.953,18.392,4.953,28.321v272.312
	c0,47.022-38.472,85.495-85.495,85.495h-262.1c-15.098,0-29.291-4.006-41.637-10.949c11.785,33.157,43.451,57.107,80.519,57.107
	h262.1c47.023,0,85.495-38.473,85.495-85.495v-272.311C1316.087,1074.624,1298.344,1046.716,1272.252,1032.054z"/>
<path style="fill:#FFFFFF;" d="M1191.709,1418.182c47.023,0,85.495-38.473,85.495-85.495v-272.312
	c0-9.929-1.804-19.436-4.953-28.321c-4.175-11.779-10.816-22.401-19.374-31.192c-10.041-10.317-22.628-18.118-36.74-22.359v-78.114
	c0.005-25.206-6.128-49.073-16.884-70.189c-7.498-14.719-17.223-28.112-28.766-39.64c-28.067-28.102-67.053-45.657-109.828-45.651
	c-42.776-0.007-81.762,17.549-109.829,45.651c-28.101,28.067-45.657,67.054-45.649,109.828v78.114
	c-35.211,10.58-61.067,43.336-61.067,81.872v272.312c0,31.923,17.758,59.866,43.859,74.546
	c12.346,6.943,26.539,10.949,41.637,10.949H1191.709z M1094.817,1283.667h-68.313c-6.431,0-11.581-5.275-12.135-11.803
	c-0.079-0.932-0.065-1.89,0.053-2.862l13.234-108.891c-7.132-6.641-12.283-15.383-14.41-25.254c-0.71-3.29-1.084-6.706-1.084-10.21
	c0-5.022,0.764-9.866,2.18-14.422c6.141-19.742,24.557-34.076,46.318-34.076c3.262,0,6.446,0.334,9.527,0.948
	c0.044,0.008,0.091,0.011,0.136,0.021l0,0c22.155,4.48,38.835,24.055,38.835,47.53c0,14.019-5.984,26.61-15.493,35.464
	l13.232,108.89C1107.842,1276.776,1102.166,1283.667,1094.817,1283.667z M1060.66,794.8c4.142,0.002,8.209,0.306,12.229,0.775
	c24.13,2.819,45.817,13.79,62.321,30.263c8.387,8.404,15.257,18.206,20.458,28.93c6.714,13.846,10.577,29.268,10.581,45.621v74.492
	H955.07v-74.492c0.002-2.058,0.194-4.067,0.311-6.096c1.542-26.58,12.874-50.569,30.727-68.456
	C1005.36,806.622,1031.639,794.807,1060.66,794.8z"/>
<path style="fill:#334C99;" d="M1026.504,1283.666h19.327c-7.351,0-13.028-6.89-12.083-14.665l13.234-108.891
	c-9.51-8.854-15.493-21.445-15.493-35.464c0-23.475,16.681-43.05,38.835-47.53l0,0c-0.045-0.009-0.092-0.012-0.136-0.021
	c-3.083-0.614-6.266-0.947-9.527-0.947c-21.761,0-40.177,14.333-46.318,34.076c-1.416,4.556-2.18,9.4-2.18,14.422
	c0,3.504,0.374,6.92,1.084,10.21c2.129,9.87,7.278,18.613,14.411,25.254l-13.235,108.891c-0.118,0.972-0.133,1.93-0.053,2.862
	C1014.924,1278.391,1020.074,1283.666,1026.504,1283.666z"/>
<path style="fill:#92BAE4;" d="M1067.998,212.225v193.997c3.339,0.037,6.682,0.051,10.009,0.138c1.888,0.049,3.762,0.15,5.647,0.215
	c3.871,0.134,7.743,0.263,11.598,0.464c2.228,0.116,4.441,0.284,6.664,0.423c3.494,0.217,6.992,0.427,10.472,0.698
	c2.347,0.184,4.68,0.416,7.02,0.624c3.337,0.297,6.677,0.588,10.001,0.935c2.387,0.249,4.761,0.542,7.141,0.817
	c3.261,0.377,6.523,0.751,9.77,1.175c2.382,0.311,4.753,0.66,7.126,0.997c3.229,0.458,6.456,0.919,9.669,1.424
	c2.352,0.37,4.694,0.771,7.039,1.166c3.222,0.543,6.44,1.094,9.644,1.683c2.301,0.423,4.592,0.871,6.883,1.319
	c3.231,0.63,6.458,1.274,9.673,1.952c2.242,0.473,4.475,0.965,6.709,1.46c3.252,0.722,6.497,1.462,9.732,2.232
	c2.159,0.515,4.314,1.042,6.465,1.578c3.301,0.822,6.592,1.667,9.873,2.539c2.06,0.548,4.116,1.103,6.168,1.669
	c3.359,0.928,6.705,1.885,10.042,2.865c1.948,0.572,3.893,1.146,5.832,1.735c3.444,1.046,6.872,2.128,10.292,3.229
	c1.808,0.582,3.616,1.161,5.417,1.759c3.555,1.179,7.09,2.399,10.617,3.637c1.641,0.576,3.284,1.143,4.917,1.732
	c3.724,1.341,7.423,2.727,11.114,4.133c1.41,0.537,2.826,1.062,4.231,1.608c3.977,1.547,7.927,3.145,11.865,4.766
	c1.098,0.452,2.203,0.89,3.3,1.348c4.382,1.832,8.736,3.721,13.069,5.645c0.631,0.281,1.269,0.549,1.9,0.832
	c40.628,18.195,79.052,40.416,114.787,66.147c0.009,0.006,0.017,0.013,0.025,0.018c4.426,3.188,8.809,6.432,13.152,9.727
	c0.148,0.111,0.292,0.224,0.439,0.337c4.208,3.197,8.375,6.446,12.503,9.742c0.224,0.18,0.448,0.362,0.672,0.542
	c4.054,3.246,8.067,6.539,12.042,9.878c0.253,0.214,0.505,0.429,0.76,0.643c3.944,3.326,7.849,6.697,11.713,10.113
	c0.253,0.224,0.505,0.448,0.757,0.672c3.871,3.432,7.699,6.91,11.487,10.431c0.221,0.205,0.441,0.41,0.661,0.616
	c3.817,3.56,7.592,7.164,11.324,10.814c0.178,0.174,0.357,0.348,0.534,0.522c3.794,3.717,7.542,7.481,11.244,11.289
	c0.099,0.101,0.196,0.201,0.293,0.301c114.029,117.454,184.396,277.515,184.877,454.033h193.997c0.001,0.607,0.023,1.21,0.023,1.818
	C1909.188,594.485,1533.241,216.175,1067.998,212.225z"/>
<path style="fill:#455EA8;" d="M991.809,946.548v28.333h174.44v-74.492c-0.004-16.353-3.867-31.776-10.581-45.621
	c-16.371-10.05-35.549-15.952-56.127-15.952C1040.138,838.816,991.809,887.146,991.809,946.548z"/>
<path style="fill:#455EA8;" d="M1072.889,795.575c-4.02-0.47-8.087-0.774-12.229-0.775c-29.021,0.007-55.3,11.822-74.552,31.038
	c-17.853,17.886-29.185,41.875-30.727,68.456C973.856,843.484,1018.477,805.156,1072.889,795.575z"/>
<path style="fill:#334C99;" d="M1216.138,978.503c14.112,4.241,26.699,12.042,36.74,22.359v-54.314
	c0-46.502-20.833-88.203-53.625-116.348c10.756,21.116,16.889,44.983,16.884,70.189V978.503z"/>
<path style="fill:#334C99;" d="M955.381,894.294c-0.117,2.029-0.309,4.038-0.311,6.096v74.492h36.739v-28.333
	c0-59.403,48.329-107.732,107.732-107.732c20.577,0,39.755,5.902,56.127,15.952c-5.201-10.724-12.071-20.526-20.458-28.93
	c-16.504-16.473-38.191-27.444-62.321-30.263C1018.477,805.156,973.856,843.484,955.381,894.294z"/>
</svg>
